<svg width="20" height="13" viewBox="0 0 20 13" fill="none" xmlns="http://www.w3.org/2000/svg">
<path d="M8.34899 6.01337C8.34899 6.01337 10.1656 5.87851 10.1656 3.74824C10.1656 1.61781 8.67938 0.578125 6.79677 0.578125H0.601746V12.4832H6.79677C6.79677 12.4832 10.5786 12.6027 10.5786 8.96941C10.5786 8.96941 10.7435 6.01337 8.34899 6.01337ZM6.35086 2.69413H6.79677C6.79677 2.69413 7.63886 2.69413 7.63886 3.9328C7.63886 5.17133 7.14362 5.35089 6.58189 5.35089H3.33135V2.69413H6.35086ZM6.62171 10.3673H3.33135V7.18581H6.79677C6.79677 7.18581 8.05187 7.16936 8.05187 8.8208C8.05187 10.2133 7.11443 10.3568 6.62171 10.3673ZM15.6223 3.60713C11.0441 3.60713 11.048 8.18144 11.048 8.18144C11.048 8.18144 10.7339 12.7322 15.6223 12.7322C15.6223 12.7322 19.696 12.965 19.696 9.56653H17.6009C17.6009 9.56653 17.6708 10.8463 15.6922 10.8463C15.6922 10.8463 13.5969 10.9867 13.5969 8.77511H19.7658C19.7658 8.77503 20.4408 3.60713 15.6223 3.60713ZM13.5738 7.18581C13.5738 7.18581 13.8297 5.35085 15.6689 5.35085C17.5077 5.35085 17.4847 7.18581 17.4847 7.18581H13.5738ZM17.9727 2.74551H13.061V1.27949H17.9727V2.74551Z" fill="#161616"/>
</svg>
