<svg width="39" height="39" viewBox="0 0 39 39" fill="none" xmlns="http://www.w3.org/2000/svg">
<rect x="0.4" y="0.4" width="37.6" height="37.6" rx="18.8" fill="#FABC05"/>
<rect x="0.4" y="0.4" width="37.6" height="37.6" rx="18.8" stroke="#161616" stroke-width="0.8"/>
<mask id="mask0_78_850" style="mask-type:luminance" maskUnits="userSpaceOnUse" x="9" y="13" width="20" height="13">
<path d="M28.8 13.1213H9.59998V25.2787H28.8V13.1213Z" fill="white"/>
</mask>
<g mask="url(#mask0_78_850)">
<path d="M17.349 18.5565C17.349 18.5565 19.1656 18.4216 19.1656 16.2913C19.1656 14.1609 17.6794 13.1212 15.7968 13.1212H9.60175V25.0263H15.7968C15.7968 25.0263 19.5786 25.1458 19.5786 21.5125C19.5786 21.5125 19.7435 18.5565 17.349 18.5565ZM15.3509 15.2372H15.7968C15.7968 15.2372 16.6389 15.2372 16.6389 16.4759C16.6389 17.7144 16.1436 17.894 15.5819 17.894H12.3314V15.2372H15.3509ZM15.6217 22.9104H12.3314V19.7289H15.7968C15.7968 19.7289 17.0519 19.7125 17.0519 21.3639C17.0519 22.7564 16.1144 22.8999 15.6217 22.9104ZM24.6223 16.1502C20.0441 16.1502 20.048 20.7245 20.048 20.7245C20.048 20.7245 19.7339 25.2753 24.6223 25.2753C24.6223 25.2753 28.696 25.5081 28.696 22.1096H26.6009C26.6009 22.1096 26.6708 23.3894 24.6922 23.3894C24.6922 23.3894 22.5969 23.5298 22.5969 21.3182H28.7658C28.7658 21.3181 29.4408 16.1502 24.6223 16.1502ZM22.5738 19.7289C22.5738 19.7289 22.8297 17.8939 24.6689 17.8939C26.5077 17.8939 26.4847 19.7289 26.4847 19.7289H22.5738ZM26.9727 15.2886H22.061V13.8226H26.9727V15.2886Z" fill="#161616"/>
</g>
</svg>
