<svg width="19" height="19" viewBox="0 0 19 19" fill="none" xmlns="http://www.w3.org/2000/svg">
<path d="M4.29364 2.81311C4.29339 3.33173 4.09858 3.829 3.75207 4.19554C3.40556 4.56207 2.93572 4.76784 2.44592 4.76759C1.95611 4.76732 1.48647 4.56106 1.1403 4.19415C0.79413 3.82726 0.599792 3.32978 0.600037 2.81116C0.600282 2.29255 0.795089 1.79527 1.1416 1.42874C1.48812 1.0622 1.95796 0.85643 2.44776 0.85669C2.93756 0.856949 3.4072 1.06322 3.75337 1.43012C4.09954 1.79702 4.29388 2.2945 4.29364 2.81311ZM4.34904 6.21559H0.655441V18.4567H4.34904V6.21559ZM10.1849 6.21559H6.5098V18.4567H10.148V12.033C10.148 8.45458 14.5526 8.12215 14.5526 12.033V18.4567H18.2V10.7033C18.2 4.67079 11.6808 4.89567 10.148 7.85817L10.1849 6.21559Z" fill="#161616"/>
</svg>
