<svg width="39" height="39" viewBox="0 0 39 39" fill="none" xmlns="http://www.w3.org/2000/svg">
<rect x="0.399939" y="0.799994" width="37.6" height="37.6" rx="18.8" fill="#FABC05"/>
<rect x="0.399939" y="0.799994" width="37.6" height="37.6" rx="18.8" stroke="#161616" stroke-width="0.8"/>
<mask id="mask0_78_841" style="mask-type:luminance" maskUnits="userSpaceOnUse" x="9" y="10" width="20" height="20">
<path d="M28.8 10H9.59998V29.2H28.8V10Z" fill="white"/>
</mask>
<g mask="url(#mask0_78_841)">
<path d="M23.5013 10H14.8983C11.9768 10 9.59998 12.377 9.59998 15.2985V23.9014C9.59998 26.823 11.9768 29.1999 14.8983 29.1999H23.5013C26.423 29.1999 28.7999 26.823 28.7999 23.9014V15.2985C28.8 12.377 26.423 10 23.5013 10ZM27.0965 23.9014C27.0965 25.8838 25.4837 27.4964 23.5014 27.4964H14.8983C12.9161 27.4965 11.3035 25.8838 11.3035 23.9014V15.2985C11.3035 13.3163 12.9161 11.7035 14.8983 11.7035H23.5013C25.4836 11.7035 27.0964 13.3163 27.0964 15.2985L27.0965 23.9014Z" fill="#161616"/>
<path d="M19.1999 14.6531C16.4719 14.6531 14.2526 16.8725 14.2526 19.6005C14.2526 22.3283 16.4719 24.5475 19.1999 24.5475C21.9278 24.5475 24.1472 22.3283 24.1472 19.6005C24.1472 16.8725 21.9278 14.6531 19.1999 14.6531ZM19.1999 22.8439C17.4113 22.8439 15.9561 21.3889 15.9561 19.6003C15.9561 17.8117 17.4112 16.3565 19.1999 16.3565C20.9886 16.3565 22.4437 17.8117 22.4437 19.6003C22.4437 21.3889 20.9885 22.8439 19.1999 22.8439Z" fill="#161616"/>
<path d="M24.3547 13.2086C24.0265 13.2086 23.7041 13.3415 23.4723 13.5743C23.2394 13.806 23.1055 14.1285 23.1055 14.4579C23.1055 14.7862 23.2395 15.1086 23.4723 15.3414C23.7039 15.5731 24.0265 15.7071 24.3547 15.7071C24.684 15.7071 25.0055 15.5731 25.2383 15.3414C25.4711 15.1086 25.6039 14.7861 25.6039 14.4579C25.6039 14.1285 25.4711 13.806 25.2383 13.5743C25.0066 13.3415 24.684 13.2086 24.3547 13.2086Z" fill="#161616"/>
</g>
</svg>
