<svg width="20" height="20" viewBox="0 0 20 20" fill="none" xmlns="http://www.w3.org/2000/svg">
<mask id="mask0_89_1026" style="mask-type:luminance" maskUnits="userSpaceOnUse" x="0" y="0" width="20" height="20">
<path d="M19.2001 0.0568848H6.10352e-05V19.2569H19.2001V0.0568848Z" fill="white"/>
</mask>
<g mask="url(#mask0_89_1026)">
<path d="M13.9013 0.0568848H5.29842C2.37691 0.0568848 6.10352e-05 2.43384 6.10352e-05 5.35536V13.9583C6.10352e-05 16.8799 2.37691 19.2568 5.29842 19.2568H13.9013C16.8231 19.2568 19.2 16.8798 19.2 13.9583V5.35536C19.2001 2.43384 16.8231 0.0568848 13.9013 0.0568848ZM17.4965 13.9583C17.4965 15.9406 15.8838 17.5533 13.9015 17.5533H5.29842C3.31622 17.5534 1.70357 15.9406 1.70357 13.9583V5.35536C1.70357 3.37316 3.31622 1.76039 5.29842 1.76039H13.9013C15.8837 1.76039 17.4965 3.37316 17.4965 5.35536L17.4965 13.9583Z" fill="#161616"/>
<path d="M9.60004 4.70996C6.87201 4.70996 4.65268 6.92929 4.65268 9.65731C4.65268 12.3852 6.87201 14.6044 9.60004 14.6044C12.328 14.6044 14.5473 12.3852 14.5473 9.65731C14.5473 6.92929 12.328 4.70996 9.60004 4.70996ZM9.60004 12.9008C7.81143 12.9008 6.35618 11.4457 6.35618 9.65715C6.35618 7.86849 7.81132 6.41335 9.60004 6.41335C11.3887 6.41335 12.8438 7.86849 12.8438 9.65715C12.8438 11.4457 11.3886 12.9008 9.60004 12.9008Z" fill="#161616"/>
<path d="M14.7548 3.26562C14.4266 3.26562 14.1042 3.3985 13.8724 3.63131C13.6395 3.86299 13.5056 4.18552 13.5056 4.51487C13.5056 4.84319 13.6396 5.1656 13.8724 5.39842C14.104 5.6301 14.4266 5.76411 14.7548 5.76411C15.0841 5.76411 15.4056 5.6301 15.6384 5.39842C15.8712 5.1656 16.004 4.84307 16.004 4.51487C16.004 4.18552 15.8712 3.86299 15.6384 3.63131C15.4067 3.3985 15.0841 3.26562 14.7548 3.26562Z" fill="#161616"/>
</g>
</svg>
