<svg width="39" height="39" viewBox="0 0 39 39" fill="none" xmlns="http://www.w3.org/2000/svg">
<rect x="0.399939" y="0.599982" width="37.6" height="37.6" rx="18.8" fill="#FABC05"/>
<rect x="0.399939" y="0.599982" width="37.6" height="37.6" rx="18.8" stroke="#161616" stroke-width="0.8"/>
<path d="M14.0936 12.5564C14.0933 13.075 13.8985 13.5723 13.552 13.9389C13.2055 14.3054 12.7356 14.5112 12.2458 14.5109C11.756 14.5106 11.2864 14.3044 10.9402 13.9375C10.5941 13.5706 10.3997 13.0731 10.4 12.5545C10.4002 12.0359 10.595 11.5386 10.9415 11.1721C11.288 10.8055 11.7579 10.5997 12.2477 10.6C12.7375 10.6003 13.2071 10.8065 13.5533 11.1734C13.8995 11.5403 14.0938 12.0378 14.0936 12.5564ZM14.149 15.9589H10.4554V28.2H14.149V15.9589ZM19.9848 15.9589H16.3097V28.2H19.9479V21.7763C19.9479 18.1979 24.3525 17.8655 24.3525 21.7763V28.2H28V20.4466C28 14.4141 21.4808 14.639 19.9479 17.6015L19.9848 15.9589Z" fill="#161616"/>
</svg>
